<svg width="54" height="54" viewBox="0 0 54 54" fill="none" xmlns="http://www.w3.org/2000/svg">
<circle cx="27" cy="27" r="27" fill="url(#paint0_linear_1_340)"/>
<path d="M33.2912 25.9984C34.096 25.4604 34.6877 24.6691 34.9675 23.7565C35.0527 23.8698 35.1329 23.9872 35.2079 24.1088C35.7229 24.9407 36 25.9443 36 27.1402C36 28.9782 35.2897 30.2632 34.5676 31.0868C34.2384 31.4619 33.86 31.7929 33.4421 32.0712V33.5944C33.4422 33.7859 33.4037 33.9755 33.3288 34.1524C33.2538 34.3293 33.1439 34.4901 33.0054 34.6255C32.8668 34.7609 32.7023 34.8683 32.5212 34.9416C32.3401 35.0149 32.146 35.0526 31.95 35.0526H30.8842C30.545 35.0526 30.2197 34.921 29.9798 34.6868C29.74 34.4525 29.6053 34.1347 29.6053 33.8034H27.9C27.9 34.1347 27.7652 34.4525 27.5254 34.6868C27.2855 34.921 26.9602 35.0526 26.621 35.0526H25.5553C25.1595 35.0526 24.78 34.8991 24.5002 34.6258C24.2203 34.3525 24.0631 33.9818 24.0631 33.5952V33.0264C23.9296 32.9824 23.7976 32.9338 23.6675 32.8807C23.011 32.6171 22.4128 32.2319 21.906 31.7464C21.3696 31.2181 20.9093 30.6211 20.5375 29.9717C20.5099 29.9179 20.4704 29.8707 20.4219 29.8336C20.3734 29.7964 20.3171 29.7702 20.257 29.7568C19.8911 29.6973 19.5586 29.5129 19.3188 29.2364C19.079 28.9599 18.9474 28.6093 18.9474 28.247V26.7871C18.9474 26.085 19.4675 25.4862 20.1751 25.3713C20.2493 25.3588 20.3593 25.2864 20.4113 25.1348C20.575 24.6543 20.8931 23.9405 21.4797 23.3676C21.9024 22.9628 22.3777 22.614 22.8933 22.3299C23.0093 22.2649 23.1167 22.2091 23.2105 22.1633V19.7874C23.2105 19.0062 24.174 18.6856 24.6941 19.1911C24.9755 19.4651 25.3847 19.8298 25.8375 20.1355C26.2894 20.4403 26.7217 20.641 27.0772 20.6851C26.6556 21.5015 26.5207 22.4306 26.6935 23.3293C26.8478 24.1263 27.4728 24.6301 28.0594 24.8683L31.2108 26.1425C31.7982 26.3798 32.604 26.4548 33.2912 25.9976V25.9984ZM24.0631 25.891C24.2893 25.891 24.5061 25.8032 24.666 25.647C24.8259 25.4909 24.9158 25.279 24.9158 25.0582C24.9158 24.8373 24.8259 24.6255 24.666 24.4693C24.5061 24.3131 24.2893 24.2254 24.0631 24.2254C23.837 24.2254 23.6201 24.3131 23.4602 24.4693C23.3003 24.6255 23.2105 24.8373 23.2105 25.0582C23.2105 25.279 23.3003 25.4909 23.4602 25.647C23.6201 25.8032 23.837 25.891 24.0631 25.891ZM32.8103 25.3105C33.2059 25.0459 33.5399 24.7029 33.7909 24.3039C34.0418 23.9049 34.2039 23.4587 34.2666 22.9945C34.3301 22.5171 34.2869 22.0319 34.14 21.5723C33.9931 21.1128 33.746 20.6898 33.4157 20.3325C33.0853 19.9752 32.6796 19.6921 32.2265 19.5027C31.7733 19.3132 31.2835 19.222 30.7908 19.2352C30.2981 19.2484 29.8142 19.3658 29.3724 19.5792C28.9306 19.7927 28.5414 20.0971 28.2317 20.4716C27.9219 20.8461 27.6989 21.2817 27.5781 21.7484C27.4572 22.2151 27.4414 22.7019 27.5317 23.1752C27.553 23.2835 27.5905 23.3851 27.6425 23.4792C27.6851 23.5566 27.7363 23.6291 27.796 23.6957C27.9511 23.8706 28.1592 24.0072 28.386 24.0996L31.5373 25.3738C31.9551 25.5429 32.4368 25.5595 32.8103 25.3105Z" fill="white"/>
<defs>
<linearGradient id="paint0_linear_1_340" x1="27" y1="0" x2="27" y2="54" gradientUnits="userSpaceOnUse">
<stop stop-color="#E8B41D"/>
<stop offset="1" stop-color="#CF8226"/>
</linearGradient>
</defs>
</svg>
