<svg width="343" height="68" viewBox="0 0 343 68" fill="none" xmlns="http://www.w3.org/2000/svg">
<path d="M5.56082 62.7078C13.9118 59.1527 26.2292 56.6465 37.3775 56.0789C43.4641 55.7691 49.8024 55.8042 55.1461 57.4285C63.389 59.9342 71.9648 62.5686 82.0049 63.0741C88.0203 63.377 94.6521 62.7288 100.606 62.3637C106.864 61.98 113.86 60.9724 119.046 59.1709C125.978 56.7629 129.816 53.3368 134.499 50.0216C137.307 48.0337 140.391 45.8358 144.484 44.3789C150.797 42.1317 159.664 41.1337 167.266 41.1213C173.49 40.8045 180.54 43.0443 180.54 43.0443C180.54 43.0443 186.57 45.168 188.672 45.8919C193.426 47.5297 196.738 48.9265 200.802 50.5819C205.627 52.5477 212.379 54.8577 216.042 54.6713C224.902 54.9716 227.868 54.3902 234.969 52.5182C241.964 50.6741 246.834 46.7154 248.322 43.0863C249.806 39.4678 249.55 35.3499 252.384 31.9149C253.251 30.8638 253.936 29.5415 255.585 28.6908C261.958 25.4028 268.677 24.0169 277.852 23.5498C291.708 22.8445 302.05 27.402 311.929 31.4439C317.606 33.7667 324.828 37.2888 326.877 40.8405" stroke="white" stroke-opacity="0.05" stroke-linecap="round"/>
<path d="M4.44142 61.7117C13.032 58.2907 25.5146 55.9809 36.6955 55.5904C42.7999 55.3771 49.1322 55.5127 54.3611 57.2209C62.4271 59.8558 70.817 62.6249 80.8165 63.2892C86.8077 63.6872 93.4802 63.1445 99.4561 62.8739C105.737 62.5896 112.798 61.6934 118.105 59.9749C125.198 57.678 129.269 54.3145 134.178 51.0752C137.121 49.1329 140.354 46.985 144.544 45.5936C151.008 43.4476 159.939 42.5907 167.538 42.6987C173.779 42.4807 180.672 44.8311 180.672 44.8311C180.672 44.8311 186.553 47.0493 188.603 47.8062C193.242 49.5184 196.457 50.967 200.404 52.686C205.092 54.7272 211.681 57.1431 215.354 57.0148C224.188 57.4553 227.193 56.9212 234.418 55.1627C241.536 53.4304 246.675 49.5509 248.412 45.9472C250.143 42.3541 250.172 38.2343 253.24 34.8459C254.179 33.8091 254.954 32.4984 256.66 31.6742C263.256 28.4888 270.066 27.2102 279.268 26.8887C293.164 26.4033 303.187 31.1224 312.782 35.3188C318.296 37.7304 325.273 41.3651 327.076 44.9475" stroke="white" stroke-opacity="0.05" stroke-linecap="round"/>
<path d="M5.04494 60.6413C13.6355 57.2203 26.1181 54.9105 37.299 54.52C43.4034 54.3067 49.7357 54.4423 54.9646 56.1504C63.0306 58.7854 71.4205 61.5544 81.42 62.2188C87.4112 62.6168 94.0838 62.0741 100.06 61.8035C106.34 61.5192 113.401 60.623 118.708 58.9045C125.801 56.6076 129.873 53.2441 134.781 50.0048C137.725 48.0625 140.957 45.9146 145.148 44.5232C151.612 42.3772 160.542 41.5203 168.141 41.6283C174.383 41.4103 181.276 43.7607 181.276 43.7607C181.276 43.7607 187.156 45.9789 189.207 46.7357C193.845 48.448 197.06 49.8966 201.008 51.6155C205.695 53.6568 212.284 56.0727 215.958 55.9444C224.792 56.3849 227.796 55.8508 235.022 54.0923C242.14 52.36 247.279 48.4805 249.016 44.8768C250.747 41.2837 250.775 37.1639 253.843 33.7755C254.782 32.7387 255.557 31.428 257.264 30.6038C263.859 27.4184 270.669 26.1398 279.872 25.8183C293.768 25.3329 303.791 30.052 313.386 34.2484C318.9 36.66 325.876 40.2947 327.68 43.8771" stroke="white" stroke-opacity="0.05" stroke-linecap="round"/>
<path d="M5.64923 59.5717C14.2398 56.1507 26.7224 53.8409 37.9033 53.4504C44.0077 53.2371 50.34 53.3727 55.5689 55.0809C63.6349 57.7159 72.0248 60.4849 82.0243 61.1492C88.0155 61.5472 94.6881 61.0045 100.664 60.7339C106.945 60.4496 114.006 59.5534 119.312 57.835C126.406 55.538 130.477 52.1746 135.386 48.9353C138.329 46.9929 141.561 44.845 145.752 43.4537C152.216 41.3076 161.146 40.4507 168.746 40.5587C174.987 40.3407 181.88 42.6911 181.88 42.6911C181.88 42.6911 187.76 44.9093 189.811 45.6662C194.45 47.3784 197.665 48.827 201.612 50.546C206.299 52.5872 212.889 55.0031 216.562 54.8748C225.396 55.3154 228.4 54.7812 235.626 53.0227C242.744 51.2904 247.883 47.4109 249.62 43.8072C251.351 40.2141 251.379 36.0943 254.448 32.7059C255.386 31.6691 256.161 30.3584 257.868 29.5342C264.464 26.3488 271.274 25.0702 280.476 24.7487C294.372 24.2633 304.395 28.9824 313.99 33.1788C319.504 35.5904 326.48 39.2251 328.284 42.8075" stroke="white" stroke-opacity="0.05" stroke-linecap="round"/>
<path d="M6.25155 58.5018C14.8421 55.0809 27.3247 52.7711 38.5057 52.3805C44.61 52.1673 50.9423 52.3028 56.1712 54.011C64.2372 56.646 72.6271 59.415 82.6266 60.0794C88.6178 60.4774 95.2904 59.9347 101.266 59.6641C107.547 59.3797 114.608 58.4835 119.915 56.7651C127.008 54.4682 131.08 51.1047 135.988 47.8654C138.931 45.9231 142.164 43.7751 146.354 42.3838C152.818 40.2378 161.749 39.3808 169.348 39.4889C175.59 39.2708 182.482 41.6213 182.482 41.6213C182.482 41.6213 188.363 43.8395 190.413 44.5963C195.052 46.3085 198.267 47.7571 202.214 49.4761C206.902 51.5174 213.491 53.9332 217.164 53.8049C225.999 54.2455 229.003 53.7114 236.228 51.9529C243.347 50.2206 248.486 46.3411 250.222 42.7374C251.954 39.1443 251.982 35.0244 255.05 31.6361C255.989 30.5993 256.764 29.2885 258.47 28.4643C265.066 25.279 271.876 24.0003 281.078 23.6789C294.974 23.1935 304.997 27.9126 314.592 32.109C320.107 34.5205 327.083 38.1553 328.886 41.7376" stroke="white" stroke-opacity="0.05" stroke-linecap="round"/>
<path d="M6.85507 57.4314C15.4456 54.0105 27.9282 51.7007 39.1092 51.3101C45.2136 51.0969 51.5458 51.2324 56.7748 52.9406C64.8407 55.5756 73.2306 58.3446 83.2301 59.0089C89.2213 59.407 95.8939 58.8642 101.87 58.5937C108.151 58.3093 115.211 57.4131 120.518 55.6947C127.612 53.3978 131.683 50.0343 136.592 46.795C139.535 44.8526 142.767 42.7047 146.958 41.3134C153.422 39.1674 162.352 38.3104 169.951 38.4185C176.193 38.2004 183.086 40.5509 183.086 40.5509C183.086 40.5509 188.966 42.7691 191.017 43.5259C195.655 45.2381 198.87 46.6867 202.818 48.4057C207.505 50.447 214.095 52.8628 217.768 52.7345C226.602 53.1751 229.606 52.641 236.832 50.8825C243.95 49.1502 249.089 45.2707 250.826 41.667C252.557 38.0739 252.585 33.954 255.653 30.5657C256.592 29.5289 257.367 28.2181 259.074 27.3939C265.669 24.2086 272.48 22.9299 281.682 22.6085C295.578 22.1231 305.601 26.8422 315.196 31.0386C320.71 33.4501 327.686 37.0848 329.49 40.6672" stroke="white" stroke-opacity="0.05" stroke-linecap="round"/>
<path d="M7.45837 56.3617C16.0489 52.9408 28.5315 50.631 39.7125 50.2404C45.8169 50.0272 52.1491 50.1627 57.3781 51.8709C65.444 54.5059 73.8339 57.2749 83.8334 57.9392C89.8246 58.3373 96.4972 57.7945 102.473 57.524C108.754 57.2396 115.815 56.3434 121.121 54.625C128.215 52.328 132.286 48.9646 137.195 45.7253C140.138 43.7829 143.371 41.635 147.561 40.2437C154.025 38.0977 162.956 37.2407 170.555 37.3488C176.796 37.1307 183.689 39.4811 183.689 39.4811C183.689 39.4811 189.57 41.6994 191.62 42.4562C196.259 44.1684 199.474 45.617 203.421 47.336C208.109 49.3773 214.698 51.7931 218.371 51.6648C227.205 52.1054 230.209 51.5712 237.435 49.8128C244.553 48.0805 249.692 44.201 251.429 40.5972C253.16 37.0042 253.188 32.8843 256.257 29.4959C257.196 28.4591 257.971 27.1484 259.677 26.3242C266.273 23.1389 273.083 21.8602 282.285 21.5388C296.181 21.0534 306.204 25.7724 315.799 29.9688C321.313 32.3804 328.29 36.0151 330.093 39.5975" stroke="white" stroke-opacity="0.05" stroke-linecap="round"/>
<path d="M8.06189 55.2913C16.6525 51.8704 29.135 49.5606 40.316 49.17C46.4204 48.9568 52.7526 49.0923 57.9816 50.8005C66.0476 53.4355 74.4374 56.2045 84.437 56.8688C90.4282 57.2669 97.1007 56.7241 103.077 56.4536C109.357 56.1692 116.418 55.273 121.725 53.5546C128.818 51.2576 132.89 47.8942 137.798 44.6549C140.742 42.7125 143.974 40.5646 148.165 39.1733C154.629 37.0273 163.559 36.1703 171.158 36.2784C177.4 36.0603 184.292 38.4107 184.292 38.4107C184.292 38.4107 190.173 40.6289 192.224 41.3858C196.862 43.098 200.077 44.5466 204.025 46.2656C208.712 48.3069 215.301 50.7227 218.974 50.5944C227.809 51.035 230.813 50.5008 238.039 48.7424C245.157 47.0101 250.296 43.1305 252.032 39.5268C253.764 35.9338 253.792 31.8139 256.86 28.4255C257.799 27.3887 258.574 26.078 260.281 25.2538C266.876 22.0685 273.686 20.7898 282.889 20.4684C296.785 19.983 306.808 24.702 316.403 28.8984C321.917 31.31 328.893 34.9447 330.697 38.5271" stroke="white" stroke-opacity="0.05" stroke-linecap="round"/>
<path d="M8.66519 54.2216C17.2558 50.8006 29.7383 48.4908 40.9193 48.1003C47.0237 47.887 53.3559 48.0226 58.5849 49.7308C66.6509 52.3658 75.0407 55.1348 85.0403 55.7991C91.0315 56.1971 97.704 55.6544 103.68 55.3839C109.961 55.0995 117.021 54.2033 122.328 52.4849C129.422 50.1879 133.493 46.8245 138.402 43.5852C141.345 41.6428 144.577 39.4949 148.768 38.1036C155.232 35.9575 164.162 35.1006 171.761 35.2086C178.003 34.9906 184.896 37.341 184.896 37.341C184.896 37.341 190.776 39.5592 192.827 40.3161C197.466 42.0283 200.68 43.4769 204.628 45.1959C209.315 47.2371 215.905 49.653 219.578 49.5247C228.412 49.9653 231.416 49.4311 238.642 47.6726C245.76 45.9403 250.899 42.0608 252.636 38.4571C254.367 34.864 254.395 30.7442 257.464 27.3558C258.402 26.319 259.177 25.0083 260.884 24.1841C267.48 20.9987 274.29 19.7201 283.492 19.3986C297.388 18.9132 307.411 23.6323 317.006 27.8287C322.52 30.2403 329.496 33.875 331.3 37.4574" stroke="white" stroke-opacity="0.05" stroke-linecap="round"/>
<path d="M9.26751 53.1517C17.8581 49.7308 30.3407 47.421 41.5216 47.0304C47.626 46.8172 53.9583 46.9527 59.1872 48.6609C67.2532 51.2959 75.643 54.0649 85.6426 54.7292C91.6338 55.1273 98.3063 54.5845 104.282 54.314C110.563 54.0296 117.624 53.1334 122.931 51.415C130.024 49.1181 134.096 45.7546 139.004 42.5153C141.947 40.5729 145.18 38.425 149.37 37.0337C155.834 34.8877 164.765 34.0307 172.364 34.1388C178.606 33.9207 185.498 36.2712 185.498 36.2712C185.498 36.2712 191.379 38.4894 193.429 39.2462C198.068 40.9584 201.283 42.407 205.23 44.126C209.918 46.1673 216.507 48.5831 220.18 48.4548C229.015 48.8954 232.019 48.3613 239.244 46.6028C246.363 44.8705 251.502 40.991 253.238 37.3873C254.97 33.7942 254.998 29.6743 258.066 26.286C259.005 25.2492 259.78 23.9384 261.486 23.1142C268.082 19.9289 274.892 18.6502 284.094 18.3288C297.99 17.8434 308.013 22.5625 317.608 26.7588C323.123 29.1704 330.099 32.8051 331.902 36.3875" stroke="white" stroke-opacity="0.05" stroke-linecap="round"/>
<path d="M9.87082 52.082C18.4614 48.6611 30.944 46.3513 42.1249 45.9607C48.2293 45.7475 54.5616 45.883 59.7905 47.5912C67.8565 50.2262 76.2464 52.9952 86.2459 53.6595C92.2371 54.0576 98.9096 53.5148 104.886 53.2443C111.166 52.9599 118.227 52.0637 123.534 50.3453C130.627 48.0483 134.699 44.6849 139.607 41.4456C142.55 39.5032 145.783 37.3553 149.974 35.964C156.437 33.8179 165.368 32.961 172.967 33.069C179.209 32.851 186.101 35.2014 186.101 35.2014C186.101 35.2014 191.982 37.4196 194.032 38.1765C198.671 39.8887 201.886 41.3373 205.834 43.0563C210.521 45.0976 217.11 47.5134 220.783 47.3851C229.618 47.8257 232.622 47.2915 239.848 45.5331C246.966 43.8008 252.105 39.9212 253.841 36.3175C255.573 32.7244 255.601 28.6046 258.669 25.2162C259.608 24.1794 260.383 22.8687 262.09 22.0445C268.685 18.8592 275.495 17.5805 284.698 17.2591C298.594 16.7737 308.617 21.4927 318.212 25.6891C323.726 28.1007 330.702 31.7354 332.505 35.3178" stroke="white" stroke-opacity="0.05" stroke-linecap="round"/>
<path d="M10.4753 51.0117C19.0659 47.5908 31.5485 45.281 42.7294 44.8904C48.8338 44.6772 55.1661 44.8127 60.395 46.5209C68.461 49.1559 76.8509 51.9249 86.8504 52.5893C92.8416 52.9873 99.5141 52.4446 105.49 52.174C111.771 51.8896 118.832 50.9934 124.138 49.275C131.232 46.9781 135.303 43.6146 140.212 40.3753C143.155 38.433 146.388 36.285 150.578 34.8937C157.042 32.7477 165.973 31.8907 173.572 31.9988C179.813 31.7808 186.706 34.1312 186.706 34.1312C186.706 34.1312 192.587 36.3494 194.637 37.1062C199.276 38.8185 202.491 40.2671 206.438 41.986C211.126 44.0273 217.715 46.4431 221.388 46.3148C230.222 46.7554 233.226 46.2213 240.452 44.4628C247.57 42.7305 252.709 38.851 254.446 35.2473C256.177 31.6542 256.205 27.5344 259.274 24.146C260.213 23.1092 260.987 21.7984 262.694 20.9742C269.29 17.7889 276.1 16.5103 285.302 16.1888C299.198 15.7034 309.221 20.4225 318.816 24.6189C324.33 27.0304 331.306 30.6652 333.11 34.2475" stroke="white" stroke-opacity="0.05" stroke-linecap="round"/>
<path d="M11.0796 49.9422C19.6702 46.5212 32.1527 44.2114 43.3337 43.8209C49.4381 43.6076 55.7704 43.7432 60.9993 45.4514C69.0653 48.0863 77.4551 50.8554 87.4547 51.5197C93.4459 51.9177 100.118 51.375 106.094 51.1044C112.375 50.8201 119.436 49.9239 124.743 48.2055C131.836 45.9085 135.908 42.5451 140.816 39.3058C143.759 37.3634 146.992 35.2155 151.182 33.8242C157.646 31.6781 166.577 30.8212 174.176 30.9292C180.418 30.7112 187.31 33.0616 187.31 33.0616C187.31 33.0616 193.191 35.2798 195.241 36.0367C199.88 37.7489 203.095 39.1975 207.042 40.9165C211.73 42.9577 218.319 45.3736 221.992 45.2453C230.827 45.6859 233.831 45.1517 241.056 43.3932C248.175 41.6609 253.314 37.7814 255.05 34.1777C256.782 30.5846 256.81 26.4648 259.878 23.0764C260.817 22.0396 261.592 20.7289 263.298 19.9047C269.894 16.7193 276.704 15.4407 285.906 15.1192C299.803 14.6338 309.825 19.3529 319.421 23.5493C324.935 25.9609 331.911 29.5956 333.714 33.178" stroke="white" stroke-opacity="0.05" stroke-linecap="round"/>
<path d="M11.6809 48.8722C20.2715 45.4512 32.7541 43.1414 43.935 42.7509C50.0394 42.5376 56.3717 42.6732 61.6006 44.3813C69.6666 47.0163 78.0565 49.7853 88.056 50.4497C94.0472 50.8477 100.72 50.305 106.696 50.0344C112.976 49.7501 120.037 48.8539 125.344 47.1354C132.437 44.8385 136.509 41.475 141.417 38.2357C144.361 36.2934 147.593 34.1454 151.784 32.7541C158.248 30.6081 167.178 29.7512 174.777 29.8592C181.019 29.6412 187.912 31.9916 187.912 31.9916C187.912 31.9916 193.792 34.2098 195.843 34.9666C200.481 36.6789 203.696 38.1275 207.644 39.8464C212.331 41.8877 218.92 44.3036 222.594 44.1752C231.428 44.6158 234.432 44.0817 241.658 42.3232C248.776 40.5909 253.915 36.7114 255.652 33.1077C257.383 29.5146 257.411 25.3948 260.479 22.0064C261.418 20.9696 262.193 19.6588 263.9 18.8347C270.495 15.6493 277.305 14.3707 286.508 14.0492C300.404 13.5638 310.427 18.2829 320.022 22.4793C325.536 24.8909 332.512 28.5256 334.316 32.108" stroke="white" stroke-opacity="0.05" stroke-linecap="round"/>
<path d="M12.2845 47.8018C20.875 44.3808 33.3576 42.071 44.5386 41.6805C50.643 41.4672 56.9752 41.6028 62.2042 43.311C70.2701 45.9459 78.66 48.715 88.6595 49.3793C94.6507 49.7773 101.323 49.2346 107.299 48.964C113.58 48.6797 120.641 47.7835 125.948 46.065C133.041 43.7681 137.113 40.4046 142.021 37.1653C144.964 35.223 148.197 33.0751 152.387 31.6837C158.851 29.5377 167.782 28.6808 175.381 28.7888C181.623 28.5708 188.515 30.9212 188.515 30.9212C188.515 30.9212 194.396 33.1394 196.446 33.8963C201.085 35.6085 204.3 37.0571 208.247 38.7761C212.935 40.8173 219.524 43.2332 223.197 43.1049C232.031 43.5455 235.036 43.0113 242.261 41.2528C249.379 39.5205 254.518 35.641 256.255 32.0373C257.986 28.4442 258.015 24.3244 261.083 20.936C262.022 19.8992 262.797 18.5885 264.503 17.7643C271.099 14.5789 277.909 13.3003 287.111 12.9788C301.007 12.4934 311.03 17.2125 320.625 21.4089C326.139 23.8205 333.116 27.4552 334.919 31.0376" stroke="white" stroke-opacity="0.05" stroke-linecap="round"/>
<path d="M12.8878 46.732C21.4783 43.3111 33.9609 41.0013 45.1419 40.6107C51.2463 40.3975 57.5785 40.5331 62.8075 42.2412C70.8734 44.8762 79.2633 47.6452 89.2628 48.3096C95.254 48.7076 101.927 48.1649 107.902 47.8943C114.183 47.61 121.244 46.7138 126.551 44.9953C133.644 42.6984 137.716 39.3349 142.624 36.0956C145.567 34.1533 148.8 32.0053 152.991 30.614C159.454 28.468 168.385 27.6111 175.984 27.7191C182.226 27.5011 189.118 29.8515 189.118 29.8515C189.118 29.8515 194.999 32.0697 197.049 32.8265C201.688 34.5388 204.903 35.9874 208.85 37.7063C213.538 39.7476 220.127 42.1634 223.8 42.0351C232.635 42.4757 235.639 41.9416 242.865 40.1831C249.983 38.4508 255.122 34.5713 256.858 30.9676C258.59 27.3745 258.618 23.2547 261.686 19.8663C262.625 18.8295 263.4 17.5187 265.107 16.6945C271.702 13.5092 278.512 12.2306 287.715 11.9091C301.611 11.4237 311.633 16.1428 321.229 20.3392C326.743 22.7508 333.719 26.3855 335.522 29.9678" stroke="white" stroke-opacity="0.05" stroke-linecap="round"/>
<path d="M13.4923 45.6618C22.0828 42.2409 34.5654 39.931 45.7464 39.5405C51.8508 39.3272 58.183 39.4628 63.412 41.171C71.4779 43.806 79.8678 46.575 89.8673 47.2393C95.8585 47.6373 102.531 47.0946 108.507 46.8241C114.788 46.5397 121.849 45.6435 127.155 43.9251C134.249 41.6281 138.32 38.2647 143.229 35.0254C146.172 33.083 149.404 30.9351 153.595 29.5438C160.059 27.3977 168.99 26.5408 176.589 26.6488C182.83 26.4308 189.723 28.7812 189.723 28.7812C189.723 28.7812 195.604 30.9994 197.654 31.7563C202.293 33.4685 205.508 34.9171 209.455 36.6361C214.142 38.6773 220.732 41.0932 224.405 40.9649C233.239 41.4055 236.243 40.8713 243.469 39.1128C250.587 37.3805 255.726 33.501 257.463 29.8973C259.194 26.3042 259.222 22.1844 262.291 18.796C263.229 17.7592 264.004 16.4485 265.711 15.6243C272.307 12.4389 279.117 11.1603 288.319 10.8388C302.215 10.3534 312.238 15.0725 321.833 19.2689C327.347 21.6805 334.323 25.3152 336.127 28.8976" stroke="white" stroke-opacity="0.05" stroke-linecap="round"/>
<path d="M14.0956 44.5921C22.6861 41.1711 35.1687 38.8613 46.3497 38.4708C52.4541 38.2575 58.7863 38.3931 64.0153 40.1013C72.0812 42.7363 80.4711 45.5053 90.4706 46.1696C96.4618 46.5676 103.134 46.0249 109.11 45.7543C115.391 45.47 122.452 44.5738 127.759 42.8554C134.852 40.5584 138.924 37.195 143.832 33.9557C146.775 32.0133 150.008 29.8654 154.198 28.4741C160.662 26.328 169.593 25.4711 177.192 25.5791C183.434 25.3611 190.326 27.7115 190.326 27.7115C190.326 27.7115 196.207 29.9297 198.257 30.6866C202.896 32.3988 206.111 33.8474 210.058 35.5664C214.746 37.6076 221.335 40.0235 225.008 39.8952C233.843 40.3358 236.847 39.8016 244.072 38.0431C251.191 36.3108 256.33 32.4313 258.066 28.8276C259.798 25.2345 259.826 21.1147 262.894 17.7263C263.833 16.6895 264.608 15.3788 266.314 14.5546C272.91 11.3692 279.72 10.0906 288.922 9.76915C302.818 9.28374 312.841 14.0028 322.436 18.1992C327.951 20.6108 334.927 24.2455 336.73 27.8279" stroke="white" stroke-opacity="0.05" stroke-linecap="round"/>
<path d="M14.6979 43.5222C23.2885 40.1013 35.771 37.7915 46.952 37.4009C53.0564 37.1877 59.3886 37.3232 64.6176 39.0314C72.6836 41.6664 81.0734 44.4354 91.073 45.0997C97.0642 45.4978 103.737 44.955 109.713 44.6845C115.993 44.4001 123.054 43.5039 128.361 41.7855C135.454 39.4885 139.526 36.1251 144.434 32.8858C147.378 30.9434 150.61 28.7955 154.801 27.4042C161.265 25.2581 170.195 24.4012 177.794 24.5092C184.036 24.2912 190.928 26.6416 190.928 26.6416C190.928 26.6416 196.809 28.8598 198.86 29.6167C203.498 31.3289 206.713 32.7775 210.661 34.4965C215.348 36.5378 221.937 38.9536 225.61 38.8253C234.445 39.2659 237.449 38.7317 244.675 36.9733C251.793 35.241 256.932 31.3614 258.668 27.7577C260.4 24.1646 260.428 20.0448 263.496 16.6564C264.435 15.6196 265.21 14.3089 266.917 13.4847C273.512 10.2994 280.322 9.02071 289.525 8.69926C303.421 8.21385 313.444 12.9329 323.039 17.1293C328.553 19.5409 335.529 23.1756 337.333 26.758" stroke="white" stroke-opacity="0.05" stroke-linecap="round"/>
<path d="M15.3024 42.4519C23.893 39.031 36.3755 36.7212 47.5565 36.3306C53.6609 36.1174 59.9931 36.2529 65.2221 37.9611C73.2881 40.5961 81.6779 43.3651 91.6775 44.0295C97.6687 44.4275 104.341 43.8848 110.317 43.6142C116.598 43.3299 123.659 42.4336 128.966 40.7152C136.059 38.4183 140.13 35.0548 145.039 31.8155C147.982 29.8732 151.215 27.7252 155.405 26.3339C161.869 24.1879 170.8 23.3309 178.399 23.439C184.64 23.221 191.533 25.5714 191.533 25.5714C191.533 25.5714 197.414 27.7896 199.464 28.5464C204.103 30.2587 207.318 31.7073 211.265 33.4262C215.953 35.4675 222.542 37.8833 226.215 37.755C235.049 38.1956 238.054 37.6615 245.279 35.903C252.397 34.1707 257.536 30.2912 259.273 26.6875C261.004 23.0944 261.032 18.9746 264.101 15.5862C265.04 14.5494 265.815 13.2386 267.521 12.4144C274.117 9.2291 280.927 7.95046 290.129 7.62901C304.025 7.1436 314.048 11.8627 323.643 16.0591C329.157 18.4706 336.134 22.1054 337.937 25.6877" stroke="white" stroke-opacity="0.05" stroke-linecap="round"/>
<path d="M15.9047 41.3821C24.4953 37.9612 36.9779 35.6514 48.1588 35.2608C54.2632 35.0476 60.5955 35.1831 65.8244 36.8913C73.8904 39.5263 82.2803 42.2953 92.2798 42.9596C98.271 43.3577 104.944 42.8149 110.919 42.5444C117.2 42.26 124.261 41.3638 129.568 39.6454C136.661 37.3484 140.733 33.985 145.641 30.7457C148.584 28.8033 151.817 26.6554 156.008 25.2641C162.471 23.118 171.402 22.2611 179.001 22.3691C185.243 22.1511 192.135 24.5015 192.135 24.5015C192.135 24.5015 198.016 26.7197 200.066 27.4766C204.705 29.1888 207.92 30.6374 211.867 32.3564C216.555 34.3976 223.144 36.8135 226.817 36.6852C235.652 37.1258 238.656 36.5916 245.882 34.8332C253 33.1009 258.139 29.2213 259.875 25.6176C261.607 22.0245 261.635 17.9047 264.703 14.5163C265.642 13.4795 266.417 12.1688 268.123 11.3446C274.719 8.15925 281.529 6.88061 290.732 6.55916C304.628 6.07375 314.65 10.7928 324.246 14.9892C329.76 17.4008 336.736 21.0355 338.539 24.6179" stroke="white" stroke-opacity="0.05" stroke-linecap="round"/>
<path d="M16.5092 40.3118C25.0998 36.8909 37.5824 34.5811 48.7633 34.1905C54.8677 33.9773 61.2 34.1128 66.4289 35.821C74.4949 38.456 82.8848 41.225 92.8843 41.8894C98.8755 42.2874 105.548 41.7447 111.524 41.4741C117.805 41.1897 124.866 40.2935 130.172 38.5751C137.266 36.2782 141.337 32.9147 146.246 29.6754C149.189 27.7331 152.421 25.5851 156.612 24.1938C163.076 22.0478 172.006 21.1908 179.606 21.2989C185.847 21.0809 192.74 23.4313 192.74 23.4313C192.74 23.4313 198.62 25.6495 200.671 26.4063C205.31 28.1185 208.525 29.5672 212.472 31.2861C217.159 33.3274 223.749 35.7432 227.422 35.6149C236.256 36.0555 239.26 35.5214 246.486 33.7629C253.604 32.0306 258.743 28.1511 260.48 24.5474C262.211 20.9543 262.239 16.8345 265.308 13.4461C266.246 12.4093 267.021 11.0985 268.728 10.2743C275.324 7.089 282.134 5.81036 291.336 5.4889C305.232 5.00349 315.255 9.72258 324.85 13.919C330.364 16.3305 337.34 19.9653 339.144 23.5476" stroke="white" stroke-opacity="0.05" stroke-linecap="round"/>
<path d="M17.1125 39.2421C25.7031 35.8212 38.1857 33.5114 49.3666 33.1208C55.471 32.9076 61.8033 33.0431 67.0322 34.7513C75.0982 37.3863 83.4881 40.1553 93.4876 40.8197C99.4788 41.2177 106.151 40.675 112.127 40.4044C118.408 40.12 125.469 39.2238 130.776 37.5054C137.869 35.2085 141.941 31.845 146.849 28.6057C149.792 26.6634 153.025 24.5154 157.215 23.1241C163.679 20.9781 172.61 20.1211 180.209 20.2292C186.451 20.0112 193.343 22.3616 193.343 22.3616C193.343 22.3616 199.224 24.5798 201.274 25.3366C205.913 27.0488 209.128 28.4975 213.075 30.2164C217.763 32.2577 224.352 34.6735 228.025 34.5452C236.86 34.9858 239.864 34.4517 247.089 32.6932C254.208 30.9609 259.347 27.0814 261.083 23.4777C262.815 19.8846 262.843 15.7648 265.911 12.3764C266.85 11.3396 267.625 10.0288 269.331 9.20463C275.927 6.0193 282.737 4.74065 291.939 4.4192C305.835 3.93379 315.858 8.65288 325.453 12.8493C330.968 15.2608 337.944 18.8956 339.747 22.4779" stroke="white" stroke-opacity="0.05" stroke-linecap="round"/>
<path d="M17.7148 38.1722C26.3054 34.7513 38.788 32.4415 49.9689 32.0509C56.0733 31.8377 62.4056 31.9733 67.6345 33.6814C75.7005 36.3164 84.0904 39.0854 94.0899 39.7498C100.081 40.1478 106.754 39.6051 112.73 39.3345C119.01 39.0502 126.071 38.154 131.378 36.4355C138.471 34.1386 142.543 30.7751 147.451 27.5358C150.394 25.5935 153.627 23.4455 157.818 22.0542C164.282 19.9082 173.212 19.0513 180.811 19.1593C187.053 18.9413 193.945 21.2917 193.945 21.2917C193.945 21.2917 199.826 23.5099 201.876 24.2667C206.515 25.979 209.73 27.4276 213.678 29.1465C218.365 31.1878 224.954 33.6037 228.627 33.4753C237.462 33.9159 240.466 33.3818 247.692 31.6233C254.81 29.891 259.949 26.0115 261.685 22.4078C263.417 18.8147 263.445 14.6949 266.513 11.3065C267.452 10.2697 268.227 8.95894 269.934 8.13475C276.529 4.94941 283.339 3.67077 292.542 3.34932C306.438 2.86391 316.461 7.58299 326.056 11.7794C331.57 14.191 338.546 17.8257 340.349 21.4081" stroke="white" stroke-opacity="0.05" stroke-linecap="round"/>
<path d="M18.3193 37.102C26.9099 33.6811 39.3925 31.3713 50.5734 30.9807C56.6778 30.7675 63.0101 30.903 68.239 32.6112C76.305 35.2462 84.6949 38.0152 94.6944 38.6795C100.686 39.0776 107.358 38.5348 113.334 38.2643C119.615 37.9799 126.676 37.0837 131.982 35.3653C139.076 33.0683 143.147 29.7049 148.056 26.4656C150.999 24.5232 154.232 22.3753 158.422 20.984C164.886 18.838 173.817 17.981 181.416 18.0891C187.657 17.871 194.55 20.2214 194.55 20.2214C194.55 20.2214 200.431 22.4396 202.481 23.1965C207.12 24.9087 210.335 26.3573 214.282 28.0763C218.97 30.1176 225.559 32.5334 229.232 32.4051C238.066 32.8457 241.07 32.3115 248.296 30.5531C255.414 28.8208 260.553 24.9412 262.29 21.3375C264.021 17.7444 264.049 13.6246 267.118 10.2362C268.057 9.19944 268.832 7.88869 270.538 7.06449C277.134 3.87916 283.944 2.60052 293.146 2.27907C307.042 1.79366 317.065 6.51274 326.66 10.7091C332.174 13.1207 339.151 16.7554 340.954 20.3378" stroke="white" stroke-opacity="0.05" stroke-linecap="round"/>
</svg>
