<svg width="149" height="36" viewBox="0 0 149 36" fill="none" xmlns="http://www.w3.org/2000/svg">
<path d="M59.172 32H55.932V14.648H59.172V32Z" fill="#1156DD"/>
<path d="M65.9318 21.2C66.1798 20.952 66.4398 20.724 66.7118 20.516C66.9918 20.3 67.2838 20.12 67.5878 19.976C67.8998 19.824 68.2318 19.708 68.5838 19.628C68.9358 19.54 69.3198 19.496 69.7358 19.496C70.4078 19.496 71.0038 19.612 71.5238 19.844C72.0438 20.068 72.4758 20.388 72.8198 20.804C73.1718 21.212 73.4358 21.704 73.6118 22.28C73.7958 22.848 73.8878 23.476 73.8878 24.164V32H70.9238V24.164C70.9238 23.412 70.7518 22.832 70.4078 22.424C70.0638 22.008 69.5398 21.8 68.8358 21.8C68.3238 21.8 67.8438 21.916 67.3958 22.148C66.9478 22.38 66.5238 22.696 66.1238 23.096V32H63.1598V19.688H64.9718C65.3558 19.688 65.6078 19.868 65.7278 20.228L65.9318 21.2Z" fill="#1156DD"/>
<path d="M84.977 22.088C84.897 22.216 84.813 22.308 84.725 22.364C84.637 22.412 84.525 22.436 84.389 22.436C84.245 22.436 84.089 22.396 83.921 22.316C83.761 22.236 83.573 22.148 83.357 22.052C83.141 21.948 82.893 21.856 82.613 21.776C82.341 21.696 82.017 21.656 81.641 21.656C81.057 21.656 80.597 21.78 80.261 22.028C79.933 22.276 79.769 22.6 79.769 23C79.769 23.264 79.853 23.488 80.021 23.672C80.197 23.848 80.425 24.004 80.705 24.14C80.993 24.276 81.317 24.4 81.677 24.512C82.037 24.616 82.401 24.732 82.769 24.86C83.145 24.988 83.513 25.136 83.873 25.304C84.233 25.464 84.553 25.672 84.833 25.928C85.121 26.176 85.349 26.476 85.517 26.828C85.693 27.18 85.781 27.604 85.781 28.1C85.781 28.692 85.673 29.24 85.457 29.744C85.249 30.24 84.937 30.672 84.521 31.04C84.105 31.4 83.589 31.684 82.973 31.892C82.365 32.092 81.661 32.192 80.861 32.192C80.437 32.192 80.021 32.152 79.613 32.072C79.213 32 78.825 31.896 78.449 31.76C78.081 31.624 77.737 31.464 77.417 31.28C77.105 31.096 76.829 30.896 76.589 30.68L77.273 29.552C77.361 29.416 77.465 29.312 77.585 29.24C77.705 29.168 77.857 29.132 78.041 29.132C78.225 29.132 78.397 29.184 78.557 29.288C78.725 29.392 78.917 29.504 79.133 29.624C79.349 29.744 79.601 29.856 79.889 29.96C80.185 30.064 80.557 30.116 81.005 30.116C81.357 30.116 81.657 30.076 81.905 29.996C82.161 29.908 82.369 29.796 82.529 29.66C82.697 29.524 82.817 29.368 82.889 29.192C82.969 29.008 83.009 28.82 83.009 28.628C83.009 28.34 82.921 28.104 82.745 27.92C82.577 27.736 82.349 27.576 82.061 27.44C81.781 27.304 81.457 27.184 81.089 27.08C80.729 26.968 80.357 26.848 79.973 26.72C79.597 26.592 79.225 26.444 78.857 26.276C78.497 26.1 78.173 25.88 77.885 25.616C77.605 25.352 77.377 25.028 77.201 24.644C77.033 24.26 76.949 23.796 76.949 23.252C76.949 22.748 77.049 22.268 77.249 21.812C77.449 21.356 77.741 20.96 78.125 20.624C78.517 20.28 79.001 20.008 79.577 19.808C80.161 19.6 80.833 19.496 81.593 19.496C82.441 19.496 83.213 19.636 83.909 19.916C84.605 20.196 85.185 20.564 85.649 21.02L84.977 22.088Z" fill="#1156DD"/>
<path d="M92.8741 32.192C91.8021 32.192 90.9781 31.892 90.4021 31.292C89.8341 30.684 89.5501 29.848 89.5501 28.784V21.908H88.2901C88.1301 21.908 87.9941 21.856 87.8821 21.752C87.7701 21.648 87.7141 21.492 87.7141 21.284V20.108L89.6941 19.784L90.3181 16.424C90.3581 16.264 90.4341 16.14 90.5461 16.052C90.6581 15.964 90.8021 15.92 90.9781 15.92H92.5141V19.796H95.8021V21.908H92.5141V28.58C92.5141 28.964 92.6061 29.264 92.7901 29.48C92.9821 29.696 93.2421 29.804 93.5701 29.804C93.7541 29.804 93.9061 29.784 94.0261 29.744C94.1541 29.696 94.2621 29.648 94.3501 29.6C94.4461 29.552 94.5301 29.508 94.6021 29.468C94.6741 29.42 94.7461 29.396 94.8181 29.396C94.9061 29.396 94.9781 29.42 95.0341 29.468C95.0901 29.508 95.1501 29.572 95.2141 29.66L96.1021 31.1C95.6701 31.46 95.1741 31.732 94.6141 31.916C94.0541 32.1 93.4741 32.192 92.8741 32.192Z" fill="#1156DD"/>
<path d="M104.962 26.744C104.106 26.784 103.386 26.86 102.802 26.972C102.218 27.076 101.75 27.212 101.398 27.38C101.046 27.548 100.794 27.744 100.642 27.968C100.49 28.192 100.414 28.436 100.414 28.7C100.414 29.22 100.566 29.592 100.87 29.816C101.182 30.04 101.586 30.152 102.082 30.152C102.69 30.152 103.214 30.044 103.654 29.828C104.102 29.604 104.538 29.268 104.962 28.82V26.744ZM98.1701 21.404C99.5861 20.108 101.29 19.46 103.282 19.46C104.002 19.46 104.646 19.58 105.214 19.82C105.782 20.052 106.262 20.38 106.654 20.804C107.046 21.22 107.342 21.72 107.542 22.304C107.75 22.888 107.854 23.528 107.854 24.224V32H106.51C106.23 32 106.014 31.96 105.862 31.88C105.71 31.792 105.59 31.62 105.502 31.364L105.238 30.476C104.926 30.756 104.622 31.004 104.326 31.22C104.03 31.428 103.722 31.604 103.402 31.748C103.082 31.892 102.738 32 102.37 32.072C102.01 32.152 101.61 32.192 101.17 32.192C100.65 32.192 100.17 32.124 99.7301 31.988C99.2901 31.844 98.9101 31.632 98.5901 31.352C98.2701 31.072 98.0221 30.724 97.8461 30.308C97.6701 29.892 97.5821 29.408 97.5821 28.856C97.5821 28.544 97.6341 28.236 97.7381 27.932C97.8421 27.62 98.0101 27.324 98.2421 27.044C98.4821 26.764 98.7901 26.5 99.1661 26.252C99.5421 26.004 100.002 25.788 100.546 25.604C101.098 25.42 101.738 25.272 102.466 25.16C103.194 25.04 104.026 24.968 104.962 24.944V24.224C104.962 23.4 104.786 22.792 104.434 22.4C104.082 22 103.574 21.8 102.91 21.8C102.43 21.8 102.03 21.856 101.71 21.968C101.398 22.08 101.122 22.208 100.882 22.352C100.642 22.488 100.422 22.612 100.222 22.724C100.03 22.836 99.8141 22.892 99.5741 22.892C99.3661 22.892 99.1901 22.84 99.0461 22.736C98.9021 22.624 98.7861 22.496 98.6981 22.352L98.1701 21.404Z" fill="#1156DD"/>
<path d="M114.176 21.2C114.424 20.952 114.684 20.724 114.956 20.516C115.236 20.3 115.528 20.12 115.832 19.976C116.144 19.824 116.476 19.708 116.828 19.628C117.18 19.54 117.564 19.496 117.98 19.496C118.652 19.496 119.248 19.612 119.768 19.844C120.288 20.068 120.72 20.388 121.064 20.804C121.416 21.212 121.68 21.704 121.856 22.28C122.04 22.848 122.132 23.476 122.132 24.164V32H119.168V24.164C119.168 23.412 118.996 22.832 118.652 22.424C118.308 22.008 117.784 21.8 117.08 21.8C116.568 21.8 116.088 21.916 115.64 22.148C115.192 22.38 114.768 22.696 114.368 23.096V32H111.404V19.688H113.216C113.6 19.688 113.852 19.868 113.972 20.228L114.176 21.2Z" fill="#1156DD"/>
<path d="M134.529 22.292C134.441 22.404 134.353 22.492 134.265 22.556C134.185 22.62 134.065 22.652 133.905 22.652C133.753 22.652 133.605 22.608 133.461 22.52C133.317 22.424 133.145 22.32 132.945 22.208C132.745 22.088 132.505 21.984 132.225 21.896C131.953 21.8 131.613 21.752 131.205 21.752C130.685 21.752 130.229 21.848 129.837 22.04C129.445 22.224 129.117 22.492 128.853 22.844C128.597 23.196 128.405 23.624 128.277 24.128C128.149 24.624 128.085 25.188 128.085 25.82C128.085 26.476 128.153 27.06 128.289 27.572C128.433 28.084 128.637 28.516 128.901 28.868C129.165 29.212 129.485 29.476 129.861 29.66C130.237 29.836 130.661 29.924 131.133 29.924C131.605 29.924 131.985 29.868 132.273 29.756C132.569 29.636 132.817 29.508 133.017 29.372C133.217 29.228 133.389 29.1 133.533 28.988C133.685 28.868 133.853 28.808 134.037 28.808C134.277 28.808 134.457 28.9 134.577 29.084L135.429 30.164C135.101 30.548 134.745 30.872 134.361 31.136C133.977 31.392 133.577 31.6 133.161 31.76C132.753 31.912 132.329 32.02 131.889 32.084C131.457 32.148 131.025 32.18 130.593 32.18C129.833 32.18 129.117 32.04 128.445 31.76C127.773 31.472 127.185 31.056 126.681 30.512C126.177 29.968 125.777 29.304 125.481 28.52C125.193 27.728 125.049 26.828 125.049 25.82C125.049 24.916 125.177 24.08 125.433 23.312C125.697 22.536 126.081 21.868 126.585 21.308C127.089 20.74 127.713 20.296 128.457 19.976C129.201 19.656 130.057 19.496 131.025 19.496C131.945 19.496 132.749 19.644 133.437 19.94C134.133 20.236 134.757 20.66 135.309 21.212L134.529 22.292Z" fill="#1156DD"/>
<path d="M145.767 24.428C145.767 24.044 145.711 23.684 145.599 23.348C145.495 23.004 145.335 22.704 145.119 22.448C144.903 22.192 144.627 21.992 144.291 21.848C143.963 21.696 143.579 21.62 143.139 21.62C142.283 21.62 141.607 21.864 141.111 22.352C140.623 22.84 140.311 23.532 140.175 24.428H145.767ZM140.115 26.216C140.163 26.848 140.275 27.396 140.451 27.86C140.627 28.316 140.859 28.696 141.147 29C141.435 29.296 141.775 29.52 142.167 29.672C142.567 29.816 143.007 29.888 143.487 29.888C143.967 29.888 144.379 29.832 144.723 29.72C145.075 29.608 145.379 29.484 145.635 29.348C145.899 29.212 146.127 29.088 146.319 28.976C146.519 28.864 146.711 28.808 146.895 28.808C147.143 28.808 147.327 28.9 147.447 29.084L148.299 30.164C147.971 30.548 147.603 30.872 147.195 31.136C146.787 31.392 146.359 31.6 145.911 31.76C145.471 31.912 145.019 32.02 144.555 32.084C144.099 32.148 143.655 32.18 143.223 32.18C142.367 32.18 141.571 32.04 140.835 31.76C140.099 31.472 139.459 31.052 138.915 30.5C138.371 29.94 137.943 29.252 137.631 28.436C137.319 27.612 137.163 26.66 137.163 25.58C137.163 24.74 137.299 23.952 137.571 23.216C137.843 22.472 138.231 21.828 138.735 21.284C139.247 20.732 139.867 20.296 140.595 19.976C141.331 19.656 142.159 19.496 143.079 19.496C143.855 19.496 144.571 19.62 145.227 19.868C145.883 20.116 146.447 20.48 146.919 20.96C147.391 21.432 147.759 22.016 148.023 22.712C148.295 23.4 148.431 24.188 148.431 25.076C148.431 25.524 148.383 25.828 148.287 25.988C148.191 26.14 148.007 26.216 147.735 26.216H140.115Z" fill="#1156DD"/>
<path d="M9.78949 3.68706C9.78949 5.72337 8.08259 7.37412 5.97702 7.37412C3.87145 7.37412 2.16455 5.72337 2.16455 3.68706C2.16455 1.65075 3.87145 0 5.97702 0C8.08259 0 9.78949 1.65075 9.78949 3.68706Z" fill="#1156DD"/>
<path d="M0 12.3146C0 10.887 1.15729 9.72974 2.58489 9.72974H3.39656C10.1184 9.72974 15.5676 15.1789 15.5676 21.9007V32.8743C15.5676 34.6006 14.1681 36.0001 12.4418 36.0001C10.7155 36.0001 9.31603 34.6006 9.31603 32.8743V21.3945C9.31603 17.9859 6.55279 15.2226 3.14416 15.2226H2.908C1.30195 15.2226 0 13.9207 0 12.3146Z" fill="#1156DD"/>
<path d="M9.72974 22.8649C9.72974 15.6105 15.6105 9.72974 22.8649 9.72974C30.1192 9.72974 36 15.6105 36 22.8649V32.9551C36 34.6368 34.6367 36.0001 32.9551 36.0001C31.2734 36.0001 29.9101 34.6368 29.9101 32.9551V23.0617C29.9101 19.2697 26.836 16.1956 23.044 16.1956C19.252 16.1956 16.1779 19.2697 16.1779 23.0617V32.776C16.1779 34.5566 14.7344 36.0001 12.9538 36.0001C11.1732 36.0001 9.72974 34.5566 9.72974 32.776V22.8649Z" fill="#1156DD"/>
</svg>
