<svg width="29" height="28" viewBox="0 0 29 28" fill="none" xmlns="http://www.w3.org/2000/svg">
<path d="M13.3237 0.666672C16.6337 0.666672 19.3334 3.32001 19.3334 6.58667V12.9733H11.1938C10.6105 12.9733 10.1492 13.4267 10.1492 14C10.1492 14.56 10.6105 15.0267 11.1938 15.0267H19.3334V21.4C19.3334 24.6667 16.6337 27.3333 13.2965 27.3333H6.68994C3.3663 27.3333 0.666687 24.68 0.666687 21.4133V6.60001C0.666687 3.32 3.37987 0.666672 6.70351 0.666672H13.3237ZM22.7203 9.40027C23.1203 8.98694 23.7736 8.98694 24.1736 9.38694L28.067 13.2669C28.267 13.4669 28.3736 13.7203 28.3736 14.0003C28.3736 14.2669 28.267 14.5336 28.067 14.7203L24.1736 18.6003C23.9736 18.8003 23.707 18.9069 23.4536 18.9069C23.187 18.9069 22.9203 18.8003 22.7203 18.6003C22.3203 18.2003 22.3203 17.5469 22.7203 17.1469L24.8536 15.0269H19.3336V12.9736H24.8536L22.7203 10.8536C22.3203 10.4536 22.3203 9.80027 22.7203 9.40027Z" fill="#FF4842"/>
</svg>
