<svg width="23" height="17" viewBox="0 0 23 17" fill="none" xmlns="http://www.w3.org/2000/svg">
<path d="M2.55556 0C1.87778 0 1.22776 0.269245 0.748505 0.748505C0.269245 1.22776 0 1.87778 0 2.55556L0 14.0556C0 14.7333 0.269245 15.3833 0.748505 15.8626C1.22776 16.3419 1.87778 16.6111 2.55556 16.6111H7.66667V0H2.55556Z" fill="#009A49"/>
<path d="M7.66797 0H15.3346V16.6111H7.66797V0Z" fill="#EEEEEE"/>
<path d="M20.4431 0H15.332V16.6111H20.4431C21.1209 16.6111 21.7709 16.3419 22.2502 15.8626C22.7295 15.3833 22.9987 14.7333 22.9987 14.0556V2.55556C22.9987 1.87778 22.7295 1.22776 22.2502 0.748505C21.7709 0.269245 21.1209 0 20.4431 0Z" fill="#009A49"/>
</svg>
