<svg width="28" height="28" viewBox="0 0 28 28" fill="none" xmlns="http://www.w3.org/2000/svg">
<path d="M9.28423 23.6372C9.95078 23.4962 14.0124 23.4962 14.6789 23.6372C15.2487 23.7688 15.8649 24.0763 15.8649 24.7478C15.8318 25.387 15.4568 25.9537 14.9386 26.3136C14.2668 26.8373 13.4783 27.169 12.6541 27.2885C12.1982 27.3476 11.7503 27.3489 11.3104 27.2885C10.4848 27.169 9.69635 26.8373 9.02583 26.3122C8.50637 25.9537 8.13135 25.387 8.09822 24.7478C8.09822 24.0763 8.71442 23.7688 9.28423 23.6372ZM12.0603 0.666656C14.8338 0.666656 17.667 1.98268 19.3499 4.16621C20.4418 5.57221 20.9428 6.97686 20.9428 9.16039V9.72843C20.9428 11.403 21.3854 12.39 22.3593 13.5274C23.0974 14.3654 23.3333 15.4411 23.3333 16.608C23.3333 17.7736 22.9504 18.8802 22.1831 19.7786C21.1786 20.8556 19.762 21.5431 18.3163 21.6626C16.2213 21.8412 14.1249 21.9916 12.0007 21.9916C9.87511 21.9916 7.78005 21.9017 5.68499 21.6626C4.23793 21.5431 2.82135 20.8556 1.81821 19.7786C1.05095 18.8802 0.666656 17.7736 0.666656 16.608C0.666656 15.4411 0.903858 14.3654 1.64064 13.5274C2.6451 12.39 3.05855 11.403 3.05855 9.72843V9.16039C3.05855 6.91778 3.61776 5.45135 4.76932 4.01581C6.48141 1.92225 9.22579 0.666656 11.941 0.666656H12.0603Z" fill="#637381"/>
<circle cx="23.0006" cy="9.00003" r="5" fill="#FF4842"/>
</svg>
