<svg width="19" height="19" viewBox="0 0 19 19" fill="none" xmlns="http://www.w3.org/2000/svg">
<path d="M17.4167 6.74501V3.15084C17.4167 2.03459 16.91 1.58334 15.6513 1.58334H12.4529C11.1942 1.58334 10.6875 2.03459 10.6875 3.15084V6.73709C10.6875 7.86126 11.1942 8.30459 12.4529 8.30459H15.6513C16.91 8.31251 17.4167 7.86126 17.4167 6.74501Z" stroke="white" stroke-width="1.5" stroke-linecap="round" stroke-linejoin="round"/>
<path d="M17.4167 15.6513V12.4529C17.4167 11.1942 16.91 10.6875 15.6513 10.6875H12.4529C11.1942 10.6875 10.6875 11.1942 10.6875 12.4529V15.6513C10.6875 16.91 11.1942 17.4167 12.4529 17.4167H15.6513C16.91 17.4167 17.4167 16.91 17.4167 15.6513Z" stroke="white" stroke-width="1.5" stroke-linecap="round" stroke-linejoin="round"/>
<path d="M8.31248 6.74501V3.15084C8.31248 2.03459 7.80581 1.58334 6.54706 1.58334H3.34873C2.08998 1.58334 1.58331 2.03459 1.58331 3.15084V6.73709C1.58331 7.86126 2.08998 8.30459 3.34873 8.30459H6.54706C7.80581 8.31251 8.31248 7.86126 8.31248 6.74501Z" stroke="white" stroke-width="1.5" stroke-linecap="round" stroke-linejoin="round"/>
<path d="M8.31248 15.6513V12.4529C8.31248 11.1942 7.80581 10.6875 6.54706 10.6875H3.34873C2.08998 10.6875 1.58331 11.1942 1.58331 12.4529V15.6513C1.58331 16.91 2.08998 17.4167 3.34873 17.4167H6.54706C7.80581 17.4167 8.31248 16.91 8.31248 15.6513Z" stroke="white" stroke-width="1.5" stroke-linecap="round" stroke-linejoin="round"/>
</svg>
